<svg viewBox="0 0 100 100" xml:space="preserve" xmlns="http://www.w3.org/2000/svg" enable-background="new 0 0 100 100"><path d="M86.387 31.71c-.803 0-1.455.652-1.455 1.456v11.729l-6.635 4.226a4.573 4.573 0 0 0-5.555-.72l-3.68 2.144v-2.479l11.837-7.403c.425-.265.684-.732.684-1.233V26.902a1.456 1.456 0 1 0-2.91 0v11.722l-3.349 2.094v-2.071a1.456 1.456 0 0 0-2.911 0v3.892l-3.35 2.095V36.32l5.577-3.488c.425-.265.684-.731.684-1.233V19.071a1.456 1.456 0 0 0-2.911 0v11.722l-3.35 2.095V29.25a1.455 1.455 0 0 0-2.91 0v9.902l-3.348-2.095V25.335a1.455 1.455 0 0 0-2.912 0v12.528c0 .502.259.968.684 1.234l5.576 3.487v9.373c0 .092.011.181.027.269l-6.395 3.727c-.001 0-.111-.007-.111-.112V44.127a4.593 4.593 0 0 0-3.13-4.347V25.335a1.455 1.455 0 0 0-2.911 0v14.446a4.592 4.592 0 0 0-3.13 4.347v11.971l-8.044-4.954v-4.351l4.793-2.998c.425-.265.684-.732.684-1.233V30.034a1.456 1.456 0 0 0-2.912 0v11.721l-2.566 1.605v-2.365a1.456 1.456 0 0 0-2.911 0v4.185l-4.132 2.584v-8.313l5.577-3.487c.425-.266.683-.733.683-1.234V22.203a1.456 1.456 0 0 0-2.911 0v11.722l-3.349 2.095v-3.638a1.456 1.456 0 0 0-2.912 0v9.902l-3.349-2.095V28.467a1.455 1.455 0 0 0-2.91 0v12.528c0 .502.258.968.684 1.234l5.576 3.487v7.126L24.898 48.4a4.581 4.581 0 0 0-2.31-.627c-.431 0-.853.065-1.258.181V32.382a1.456 1.456 0 0 0-2.911 0v9.902L15.07 40.19V28.467a1.455 1.455 0 0 0-2.91 0v12.528l.002.024c.001.056.01.11.017.164.005.041.007.083.016.123.01.047.028.09.042.136.015.044.026.09.045.133.019.043.044.083.067.124.023.04.041.081.067.119.027.038.06.072.09.109.031.036.059.074.093.107.028.028.061.05.092.076.043.036.086.074.135.105l.017.014 5.576 3.487v4.675c0 .021.006.04.007.061a4.58 4.58 0 0 0-.427 1.908c0 1.627.872 3.146 2.274 3.964l18.034 10.534a12.011 12.011 0 0 1 5.935 10.34v3.732c0 .803.652 1.455 1.455 1.455h6.26c.804 0 1.455-.652 1.455-1.455v-3.741c0-4.241 2.274-8.204 5.934-10.34l3.662-2.139a1.457 1.457 0 0 0 .523-1.992 1.458 1.458 0 0 0-1.991-.523l-3.662 2.139a14.934 14.934 0 0 0-7.376 12.854v2.285h-3.349v-2.277a14.934 14.934 0 0 0-7.377-12.854L21.74 53.81a1.674 1.674 0 0 1-.605-2.287c.444-.771 1.517-1.063 2.293-.609l23.077 13.477c1.406.82 3.232.819 4.63-.001a4.61 4.61 0 0 0 2.278-3.968V44.127c0-.924.752-1.676 1.674-1.676.924 0 1.675.752 1.675 1.676v11.714a3.026 3.026 0 0 0 3.022 3.023 3.01 3.01 0 0 0 1.521-.414l12.904-7.536c.696-.406 1.619-.213 2.127.378.018.229.084.457.216.664.047.073.106.133.162.194a1.68 1.68 0 0 1-.817 1.658l-9.33 5.448a1.456 1.456 0 0 0 1.468 2.514l9.33-5.449a4.603 4.603 0 0 0 2.231-4.581l7.573-4.822c.42-.267.674-.729.674-1.227V33.166a1.456 1.456 0 0 0-1.456-1.456zM35.414 51.198l4.132-2.585v3.344c0 .506.262.974.692 1.239l10.173 6.265c.029.018.06.032.09.047v.913c0 .597-.319 1.154-.835 1.455a1.71 1.71 0 0 1-1.694 0l-12.557-7.334v-3.344z" fill="#fec6c6" class="fill-000000"></path></svg>