<?xml version="1.0" ?><svg id="Layer_1" style="enable-background:new 0 0 100 100;" version="1.1" viewBox="0 0 100 100" xml:space="preserve" xmlns="http://www.w3.org/2000/svg" xmlns:xlink="http://www.w3.org/1999/xlink"><path d="M86.387,31.71c-0.803,0-1.455,0.652-1.455,1.456v11.729l-6.635,4.226c-0.851-0.848-2.017-1.347-3.246-1.347  c-0.809,0-1.607,0.216-2.309,0.627l-3.68,2.144v-2.479l11.837-7.403c0.425-0.265,0.684-0.732,0.684-1.233V26.902  c0-0.804-0.652-1.456-1.455-1.456c-0.804,0-1.455,0.652-1.455,1.456v11.722l-3.349,2.094v-2.071c0-0.804-0.652-1.456-1.456-1.456  c-0.803,0-1.455,0.652-1.455,1.456v3.892l-3.35,2.095V36.32l5.577-3.488c0.425-0.265,0.684-0.731,0.684-1.233V19.071  c0-0.803-0.652-1.455-1.456-1.455c-0.803,0-1.455,0.652-1.455,1.455v11.722l-3.35,2.095V29.25c0-0.803-0.651-1.455-1.455-1.455  c-0.803,0-1.455,0.652-1.455,1.455v9.902l-3.348-2.095V25.335c0-0.804-0.652-1.455-1.456-1.455s-1.456,0.652-1.456,1.455v12.528  c0,0.502,0.259,0.968,0.684,1.234l5.576,3.487v9.373c0,0.092,0.011,0.181,0.027,0.269l-6.395,3.727  c-0.001,0-0.111-0.007-0.111-0.112V44.127c0-2.02-1.313-3.736-3.13-4.347V25.335c0-0.804-0.652-1.455-1.456-1.455  c-0.803,0-1.455,0.652-1.455,1.455v14.446c-1.817,0.611-3.13,2.326-3.13,4.347v11.971l-8.044-4.954v-4.351l4.793-2.998  c0.425-0.265,0.684-0.732,0.684-1.233V30.034c0-0.804-0.652-1.456-1.456-1.456c-0.804,0-1.456,0.652-1.456,1.456v11.721  l-2.566,1.605v-2.365c0-0.803-0.652-1.455-1.456-1.455s-1.455,0.652-1.455,1.455v4.185l-4.132,2.584v-8.313l5.577-3.487  c0.425-0.266,0.683-0.733,0.683-1.234V22.203c0-0.803-0.652-1.455-1.455-1.455c-0.804,0-1.456,0.652-1.456,1.455v11.722  l-3.349,2.095v-3.638c0-0.803-0.652-1.455-1.456-1.455c-0.804,0-1.456,0.652-1.456,1.455v9.902l-3.349-2.095V28.467  c0-0.803-0.651-1.455-1.455-1.455c-0.804,0-1.455,0.652-1.455,1.455v12.528c0,0.502,0.258,0.968,0.684,1.234l5.576,3.487v7.126  l-7.606-4.442c-0.701-0.41-1.5-0.627-2.31-0.627c-0.431,0-0.853,0.065-1.258,0.181V32.382c0-0.803-0.652-1.455-1.455-1.455  c-0.804,0-1.456,0.652-1.456,1.455v9.902l-3.349-2.094V28.467c0-0.803-0.651-1.455-1.455-1.455c-0.804,0-1.455,0.652-1.455,1.455  v12.528c0,0.009,0.002,0.016,0.002,0.024c0.001,0.056,0.01,0.11,0.017,0.164c0.005,0.041,0.007,0.083,0.016,0.123  c0.01,0.047,0.028,0.09,0.042,0.136c0.015,0.044,0.026,0.09,0.045,0.133c0.019,0.043,0.044,0.083,0.067,0.124  c0.023,0.04,0.041,0.081,0.067,0.119c0.027,0.038,0.06,0.072,0.09,0.109c0.031,0.036,0.059,0.074,0.093,0.107  c0.028,0.028,0.061,0.05,0.092,0.076c0.043,0.036,0.086,0.074,0.135,0.105c0.006,0.004,0.011,0.009,0.017,0.014l5.576,3.487v4.675  c0,0.021,0.006,0.04,0.007,0.061c-0.275,0.599-0.427,1.249-0.427,1.908c0,1.627,0.872,3.146,2.274,3.964l18.034,10.534  c3.661,2.136,5.935,6.099,5.935,10.34v3.732c0,0.803,0.652,1.455,1.455,1.455h6.26c0.804,0,1.455-0.652,1.455-1.455v-3.741  c0-4.241,2.274-8.204,5.934-10.34l3.662-2.139c0.694-0.406,0.928-1.297,0.523-1.992l0,0c-0.406-0.694-1.296-0.926-1.991-0.523  l-3.662,2.139c-4.55,2.657-7.376,7.582-7.376,12.854v2.285h-3.349v-2.277c0-5.272-2.827-10.198-7.377-12.854L21.74,53.81  c-0.512-0.3-0.831-0.854-0.831-1.45c0-0.292,0.078-0.581,0.226-0.837c0.444-0.771,1.517-1.063,2.293-0.609l23.077,13.477  c1.406,0.82,3.232,0.819,4.63-0.001c1.405-0.82,2.278-2.341,2.278-3.968V44.127c0-0.924,0.752-1.676,1.674-1.676  c0.924,0,1.675,0.752,1.675,1.676v11.714c0,1.667,1.356,3.023,3.022,3.023c0.533,0,1.059-0.143,1.521-0.414l12.904-7.536  c0.696-0.406,1.619-0.213,2.127,0.378c0.018,0.229,0.084,0.457,0.216,0.664c0.047,0.073,0.106,0.133,0.162,0.194  c0.009,0.069,0.014,0.139,0.014,0.208c0,0.596-0.318,1.152-0.831,1.45l-9.33,5.448c-0.695,0.406-0.928,1.297-0.523,1.992  c0,0,0,0,0,0c0.406,0.694,1.298,0.927,1.991,0.522l9.33-5.449c1.403-0.819,2.274-2.337,2.274-3.964c0-0.207-0.015-0.413-0.043-0.617  l7.573-4.822c0.42-0.267,0.674-0.729,0.674-1.227V33.166C87.842,32.361,87.191,31.71,86.387,31.71z M35.414,51.198l4.132-2.585  v3.344c0,0.506,0.262,0.974,0.692,1.239l10.173,6.265c0.029,0.018,0.06,0.032,0.09,0.047v0.913c0,0.597-0.319,1.154-0.835,1.455  c-0.512,0.3-1.181,0.299-1.694,0l-12.557-7.334V51.198z"/></svg>